HIERARCHY
ROOT hip
{
	OFFSET 0.000000 0.000000 0.000000 
	CHANNELS 6 Xposition Yposition Zposition Xrotation Zrotation Yrotation
	JOINT abdomen
	{
		OFFSET 0.000000 3.402643 0.000000 
		CHANNELS 3 Xrotation Zrotation Yrotation
		JOINT chest
		{
			OFFSET 0.000000 8.438565 -0.680529 
			CHANNELS 3 Xrotation Zrotation Yrotation
			JOINT neck
			{
				OFFSET 0.000000 10.207942 -0.272212 
				CHANNELS 3 Xrotation Zrotation Yrotation
				JOINT head
				{
					OFFSET 0.000000 3.130431 0.000000 
					CHANNELS 3 Xrotation Zrotation Yrotation
					End Site
					{
						OFFSET 0.000000 3.130435 0.000000 
					}
				}
			}
			JOINT lCollar
			{
				OFFSET 3.470700 6.669187 -0.816635 
				CHANNELS 3 Yrotation Zrotation Xrotation
				JOINT lShldr
				{
					OFFSET 3.198488 0.000000 0.000000 
					CHANNELS 3 Zrotation Yrotation Xrotation
					JOINT lForeArm
					{
						OFFSET 10.139888 0.000000 0.000000 
						CHANNELS 3 Yrotation Zrotation Xrotation
						JOINT lHand
						{
							OFFSET 8.370511 0.000000 0.000000 
							CHANNELS 3 Zrotation Yrotation Xrotation
							End Site
							{
								OFFSET 4.083176 0.000000 0.000000 
							}
						}
					}
				}
			}
			JOINT rCollar
			{
				OFFSET -3.470700 6.669187 -0.816635 
				CHANNELS 3 Yrotation Zrotation Xrotation
				JOINT rShldr
				{
					OFFSET -3.198488 0.000000 0.000000 
					CHANNELS 3 Zrotation Yrotation Xrotation
					JOINT rForeArm
					{
						OFFSET -10.139888 0.000000 0.000000 
						CHANNELS 3 Yrotation Zrotation Xrotation
						JOINT rHand
						{
							OFFSET -8.370511 0.000000 0.000000 
							CHANNELS 3 Zrotation Yrotation Xrotation
							End Site
							{
								OFFSET -4.083176 0.000000 0.000000 
							}
						}
					}
				}
			}
		}
	}
	JOINT lThigh
	{
		OFFSET 5.308129 -1.633274 1.361059 
		CHANNELS 3 Xrotation Zrotation Yrotation
		JOINT lShin
		{
			OFFSET -2.041588 -20.007561 0.000000 
			CHANNELS 3 Xrotation Zrotation Yrotation
			JOINT lFoot
			{
				OFFSET 0.000000 -19.190928 -1.224953 
				CHANNELS 3 Xrotation Yrotation Zrotation
				End Site
				{
					OFFSET 0.000000 -2.449906 4.627600 
				}
			}
		}
	}
	JOINT rThigh
	{
		OFFSET -5.308129 -1.633274 1.361059 
		CHANNELS 3 Xrotation Zrotation Yrotation
		JOINT rShin
		{
			OFFSET 2.041588 -20.007561 0.000000 
			CHANNELS 3 Xrotation Zrotation Yrotation
			JOINT rFoot
			{
				OFFSET 0.000000 -19.190928 -1.224953 
				CHANNELS 3 Xrotation Yrotation Zrotation
				End Site
				{
					OFFSET 0.000000 -2.449906 4.627600 
				}
			}
		}
	}
}
MOTION
Frames: 15
Frame Time: 0.016667
1.209400 47.267853 -0.615806 -1.555210 0.038984 -3.632812 0.000000 0.000000 0.000000 -1.132721 0.615155 0.918126 6.102197 -0.322263 0.234371 11.527412 2.733370 -1.554227 -2.650344 -1.588808 -0.487845 -35.617165 13.914247 -34.685699 -28.988626 -3.165593 -2.888049 10.254278 0.631718 -3.706492 4.087471 4.333461 -0.586482 30.821663 -12.417247 -40.603378 29.459166 3.238290 -6.978793 -19.395653 -5.275071 -3.215887 -3.316278 5.402336 4.418236 22.315050 -2.676863 16.062113 -15.569720 1.002546 -7.175563 -2.295250 -13.533004 -9.543534 17.928827 3.503685 -4.873806 -10.740213 -0.962035 9.966327 
1.326060 47.273254 -0.709813 -1.567551 -0.068197 -3.955088 0.000000 0.000000 0.000000 -0.945527 0.624894 1.054838 5.936535 -0.283201 0.195310 11.475105 2.645346 -1.681052 -3.051138 -2.414008 -0.331680 -38.250710 14.953365 -33.651157 -30.492554 -3.367962 -3.074803 10.374110 1.198699 -3.662158 4.575292 5.599104 -0.450429 33.091431 -13.399364 -38.148945 30.636137 3.196548 -5.315309 -17.985342 -5.853767 -3.158022 -3.446389 5.330195 4.409088 22.447382 -2.679276 16.414433 -15.553565 0.975138 -7.102147 -2.343482 -13.518223 -9.483130 17.597483 3.463867 -4.620309 -10.405864 -0.940039 10.022471 
1.444291 47.274830 -0.800263 -1.527673 -0.204507 -4.277386 0.000000 0.000000 0.000000 -0.778972 0.654186 1.054842 5.741175 -0.312498 0.185544 11.645679 2.742891 -1.730273 -3.343865 -3.365264 -0.234147 -40.315273 16.054075 -31.204201 -31.246548 -3.904093 -3.087092 9.540133 1.836741 -3.602011 4.936222 6.716256 -0.372903 35.203213 -14.340038 -34.837265 31.540783 3.273309 -2.815209 -16.289679 -5.622567 -3.216987 -3.638805 5.354984 4.492580 22.618380 -2.722013 16.609226 -15.621788 0.975973 -6.981755 -2.431691 -13.478195 -9.375695 17.277819 3.472443 -4.397577 -10.040826 -0.892914 10.035480 
1.562536 47.276405 -0.890760 -1.475713 -0.350430 -4.599702 0.000000 0.000000 0.000000 -0.622182 0.683478 1.054845 5.545885 -0.341795 0.166013 11.825366 2.840413 -1.789268 -3.642388 -4.318117 -0.126338 -42.343643 17.232418 -28.787437 -31.990967 -4.440191 -3.098941 8.706302 2.475083 -3.550740 5.302495 7.825486 -0.284692 37.267643 -15.387293 -31.545734 32.450657 3.375151 -0.313789 -14.594116 -5.386126 -3.277999 -3.824370 5.384398 4.546800 22.785406 -2.814284 16.863747 -15.669779 0.952038 -6.841244 -2.499793 -13.449416 -9.303962 16.935850 3.484175 -4.137574 -9.718559 -0.870566 10.059235 
1.689448 47.286537 -1.015295 -1.293422 -0.408686 -4.853671 0.000000 0.000000 0.000000 -0.555155 0.634666 1.015779 5.224662 -0.312500 -0.009819 12.573854 2.596350 -1.818080 -3.857155 -5.061143 -0.106761 -44.596230 18.182461 -26.553169 -32.331005 -4.865944 -0.413665 6.694640 3.033934 -3.513861 5.549401 8.674828 -0.276417 39.370899 -16.498871 -28.176470 33.372601 3.551054 2.968738 -13.596839 -4.948973 -3.344407 -4.218005 5.340520 4.554629 22.862671 -2.901802 17.085699 -15.603644 0.925180 -6.645615 -2.734177 -13.499595 -9.254626 16.517014 3.533183 -3.917300 -9.281891 -0.826983 10.057586 
1.816361 47.296646 -1.139851 -1.099897 -0.476608 -5.117416 0.000000 0.000000 0.000000 -0.488060 0.585852 0.976711 4.893477 -0.292967 -0.175829 13.332044 2.362054 -1.846952 -4.070426 -5.805007 -0.077529 -46.822254 19.224859 -24.343388 -32.640747 -5.305212 2.274897 4.693286 3.596536 -3.500181 5.794355 9.515475 -0.257215 41.419300 -17.724049 -24.834509 34.293976 3.776016 6.254960 -12.610251 -4.502288 -3.397825 -4.589422 5.282650 4.561621 22.927662 -3.008174 17.325111 -15.545750 0.867096 -6.434090 -2.988374 -13.561663 -9.202371 16.107878 3.580389 -3.706625 -8.818491 -0.796481 10.037786 
1.940066 47.289974 -1.278001 -0.950732 -0.476361 -5.439670 0.000000 0.000000 0.000000 -0.333641 0.478446 0.976610 4.757792 -0.419917 -0.263736 13.906927 2.352242 -1.885982 -4.128668 -6.417422 0.020450 -48.946411 20.141792 -21.873449 -33.171871 -5.724590 6.706923 1.901062 3.258923 -3.501555 5.955034 9.954530 -0.158135 45.237640 -18.294121 -25.979528 35.436619 2.806844 12.407741 -10.621893 -4.545993 -3.421379 -4.966800 5.200330 4.568213 23.089081 -3.137074 17.571606 -15.538257 0.871950 -6.266093 -3.339634 -13.679055 -9.101931 15.950175 3.549742 -3.322080 -8.554782 -0.768138 10.097611 
2.063832 47.283298 -1.416198 -0.801569 -0.476098 -5.761925 0.000000 0.000000 0.000000 -0.189051 0.371041 0.966840 4.612637 -0.546865 -0.341875 14.491517 2.332654 -1.935170 -4.175050 -7.030031 0.118387 -51.046604 21.145754 -19.431957 -33.664738 -6.189666 11.139161 -0.891192 2.920222 -3.488326 6.112433 10.404961 -0.049516 49.080910 -18.780872 -27.159842 36.689362 1.959212 18.565916 -8.643986 -4.592428 -3.441016 -5.341081 5.126123 4.595696 23.240412 -3.266418 17.838974 -15.518478 0.843091 -6.094225 -3.681226 -13.803144 -8.999221 15.819359 3.535027 -2.943901 -8.277901 -0.753391 10.129000 
2.232841 47.279148 -1.587285 -0.469167 -0.466244 -5.927935 0.000000 0.000000 0.000000 -0.220115 0.292934 0.878945 4.712873 -0.527311 -0.634829 15.044832 2.069048 -2.003115 -4.445503 -7.436186 0.059190 -53.381054 22.247810 -17.251310 -34.594379 -6.373202 15.912592 -4.616778 2.342376 -3.438161 6.172424 10.642766 -0.110375 50.730694 -20.254993 -23.060465 37.550575 2.806459 17.911722 -10.190752 -5.142931 -3.379936 -6.000191 4.887231 4.363247 23.406668 -3.178525 18.214905 -15.434711 0.802299 -5.983252 -4.150056 -14.009942 -9.049217 15.503332 3.690087 -2.684481 -7.813740 -0.723141 10.129916 
2.401764 47.274998 -1.758302 -0.145551 -0.466101 -6.094025 0.000000 0.000000 0.000000 -0.260609 0.224588 0.781282 4.803144 -0.507746 -0.927784 15.607924 1.805439 -2.090652 -4.707031 -7.851562 0.000000 -55.673813 23.438887 -15.097342 -35.506668 -6.646617 20.683815 -8.343317 1.762738 -3.345370 6.221319 10.891312 -0.159917 52.283703 -21.840374 -18.964136 38.426548 3.648885 17.243368 -11.748706 -5.684105 -3.291492 -6.666655 4.645878 4.124887 23.591307 -3.100143 18.597620 -15.341213 0.769095 -5.878908 -4.599013 -14.224104 -9.098701 15.171611 3.856277 -2.435801 -7.342219 -0.675492 10.116986 
2.508542 47.267513 -1.880275 -0.226742 -0.844223 -6.455813 0.000000 0.000000 0.000000 0.101474 0.302710 0.722698 4.968767 -0.410082 -1.093792 16.306589 1.629733 -2.129711 -4.562449 -8.083187 0.334546 -57.981682 24.141634 -13.731761 -36.705704 -6.809639 22.734436 -12.210767 1.767241 -3.297209 6.263409 11.498254 0.127553 54.046082 -22.937977 -17.104130 39.643990 3.983755 16.709736 -11.131085 -5.838212 -3.304787 -6.889069 4.995345 4.397382 24.011728 -3.193969 18.773872 -15.446357 0.769436 -5.770072 -4.521113 -13.921306 -8.976293 14.605973 3.876007 -2.338638 -6.811256 -0.630199 10.111604 
2.615326 47.260044 -2.002297 -0.304314 -1.212073 -6.817973 0.000000 0.000000 0.000000 0.453633 0.380834 0.664113 5.143589 -0.312424 -1.259800 16.995846 1.444268 -2.178273 -4.415282 -8.313399 0.669212 -60.277599 24.898020 -12.389740 -37.909008 -7.021365 24.768621 -16.066753 1.772428 -3.241198 6.301463 12.114555 0.405472 55.788670 -24.090048 -15.274093 40.868271 4.302792 16.176538 -10.513707 -6.000471 -3.309371 -7.093741 5.317094 4.658402 24.437670 -3.250458 18.956011 -15.550288 0.794122 -5.702977 -4.413220 -13.597960 -8.854305 14.028825 3.895137 -2.252121 -6.255659 -0.557010 10.127990 
2.726256 47.258530 -2.157614 -0.197300 -1.433611 -7.297269 0.000000 0.000000 0.000000 0.629249 0.361303 0.673876 5.594659 -0.390528 -1.279334 17.273621 1.532015 -2.256619 -4.134128 -8.527533 0.837526 -62.900078 25.442215 -12.346369 -38.677448 -7.055340 24.161919 -18.058958 2.587025 -3.354735 6.254773 12.075105 0.584519 58.080582 -24.938442 -14.177668 41.515900 4.494647 15.892265 -10.687263 -6.749063 -3.245547 -7.450356 5.477821 4.755271 24.665718 -3.364080 19.336201 -15.555542 0.757507 -5.579822 -4.637996 -13.423916 -8.729282 13.486922 3.961658 -2.167829 -5.599539 -0.526572 10.036941 
2.837211 47.256992 -2.312959 -0.086288 -1.654534 -7.786705 0.000000 0.000000 0.000000 0.804799 0.332007 0.693404 6.055467 -0.468631 -1.289179 17.540989 1.629506 -2.334706 -3.850407 -8.731001 1.015587 -65.546501 25.975477 -12.344801 -39.454643 -7.083622 23.547501 -20.048498 3.395832 -3.496899 6.208259 12.045247 0.763580 60.362556 -25.818378 -13.095106 42.168293 4.672677 15.608315 -10.850888 -7.496640 -3.177668 -7.802818 5.625112 4.859494 24.905872 -3.457042 19.688860 -15.560369 0.738088 -5.480241 -4.862112 -13.245042 -8.604665 12.957438 4.042620 -2.082760 -4.954813 -0.459597 9.983181 
2.966959 47.245731 -2.487473 0.054599 -1.710359 -8.314396 0.000000 0.000000 0.000000 0.978793 0.195300 0.654326 6.615517 -0.624844 -1.279434 17.659643 1.600245 -2.324948 -3.563373 -9.030443 1.195274 -67.983788 26.332268 -12.827271 -40.005451 -6.986111 22.383970 -19.822870 4.346167 -3.682248 6.156727 11.867552 0.931162 61.999027 -26.528463 -11.725345 42.571491 4.839666 16.359465 -10.904165 -7.716257 -3.157408 -8.226019 5.551552 4.858921 25.113880 -3.490596 20.281553 -15.466564 0.745785 -5.419853 -5.302504 -13.250562 -8.534017 12.693830 4.081498 -1.952583 -4.426383 -0.416863 9.932750 
